# xmcd
#
# Track frame offsets: 
#        150
#        58259
#        67076
#        131598
#        178875
#        249286
#
# Disc length: 3591 seconds
#
# Revision: 0
# Processed by: cddbd v1.5.2PL0 Copyright (c) Steve Scherf et al.
# Submitted via: ExactAudioCopy v1.0b3
#
DISCID=590e0506
DTITLE=Various Artist - Sköna stunder
DYEAR=2010
DGENRE=New Age
TTITLE0=Rey-Ove Karlén - Älvans sång
TTITLE1=Rey-Ove Karlén - Dimman lättar
TTITLE2=Uffe Börjesson - Andas
TTITLE3=Rey-Ove Karlén - Näckrosor
TTITLE4=Uffe Börjesson - Sköna stunder
TTITLE5=Uffe Börjesson - Stilla
EXTD=
EXTT0=
EXTT1=
EXTT2=
EXTT3=
EXTT4=
EXTT5=
PLAYORDER=
